<svg xmlns="http://www.w3.org/2000/svg" xmlns:xlink="http://www.w3.org/1999/xlink" xmlns:lucid="lucid" width="1528.53" height="1600"><g transform="translate(-820 -480)" lucid:page-tab-id="L.BeP2~polPs"><path d="M840 965a5 5 0 0 1 5-5h197.9a5 5 0 0 1 5 5v275a5 5 0 0 1-5 5H845a5 5 0 0 1-5-5z" fill="#fff"/><path d="M840 1035v36h207.9v-36M840 1105v36h207.9v-36M840 1175v36h207.9v-36" fill="#e6e6e6"/><path d="M840 1000v-35a5 5 0 0 1 5-5h197.9a5 5 0 0 1 5 5v35" fill="#ccc"/><path d="M840 965a5 5 0 0 1 5-5h197.9a5 5 0 0 1 5 5v275a5 5 0 0 1-5 5H845a5 5 0 0 1-5-5zM840 1000h207.9" stroke="#000" fill="none"/><use xlink:href="#a" transform="matrix(1,0,0,1,850,960) translate(66.37037037037037 25.15555555555556)"/><use xlink:href="#b" transform="matrix(1,0,0,1,845,1002.5) translate(11.2 20.155555555555555)"/><use xlink:href="#c" transform="matrix(1,0,0,1,845,1037.5) translate(11.2 20.155555555555555)"/><use xlink:href="#d" transform="matrix(1,0,0,1,845,1072.5) translate(11.2 20.155555555555555)"/><use xlink:href="#e" transform="matrix(1,0,0,1,845,1107.5) translate(11.2 20.155555555555555)"/><use xlink:href="#f" transform="matrix(1,0,0,1,845,1142.5) translate(11.2 20.155555555555555)"/><use xlink:href="#g" transform="matrix(1,0,0,1,845,1142.5) translate(53.61975308641976 20.155555555555555)"/><use xlink:href="#h" transform="matrix(1,0,0,1,845,1142.5) translate(78.31111111111113 20.155555555555555)"/><use xlink:href="#i" transform="matrix(1,0,0,1,845,1177.5) translate(11.2 20.155555555555555)"/><use xlink:href="#j" transform="matrix(1,0,0,1,845,1177.5) translate(48.582716049382725 20.155555555555555)"/><use xlink:href="#k" transform="matrix(1,0,0,1,845,1212.5) translate(11.2 20.155555555555555)"/><use xlink:href="#j" transform="matrix(1,0,0,1,845,1212.5) translate(99.99012345679013 20.155555555555555)"/><path d="M1443.14 965a5 5 0 0 1 5-5h197.9a5 5 0 0 1 5 5v135a5 5 0 0 1-5 5h-197.9a5 5 0 0 1-5-5z" fill="#fff"/><path d="M1443.14 1035v36h207.9v-36" fill="#e6e6e6"/><path d="M1443.14 1000v-35a5 5 0 0 1 5-5h197.9a5 5 0 0 1 5 5v35" fill="#ccc"/><path d="M1443.14 965a5 5 0 0 1 5-5h197.9a5 5 0 0 1 5 5v135a5 5 0 0 1-5 5h-197.9a5 5 0 0 1-5-5zM1443.14 1000h207.9" stroke="#000" fill="none"/><use xlink:href="#l" transform="matrix(1,0,0,1,1453.1367635369386,960) translate(51.95061728395062 25.15555555555556)"/><use xlink:href="#m" transform="matrix(1,0,0,1,1448.1367635369386,1002.5) translate(11.2 20.155555555555555)"/><use xlink:href="#n" transform="matrix(1,0,0,1,1448.1367635369386,1037.5) translate(11.2 20.155555555555555)"/><use xlink:href="#o" transform="matrix(1,0,0,1,1448.1367635369386,1037.5) translate(65.42222222222223 20.155555555555555)"/><use xlink:href="#p" transform="matrix(1,0,0,1,1448.1367635369386,1072.5) translate(11.2 20.155555555555555)"/><use xlink:href="#q" transform="matrix(1,0,0,1,1448.1367635369386,1072.5) translate(53.57037037037037 20.155555555555555)"/><path d="M2090.3 962.5a5 5 0 0 1 5-5h197.92a5 5 0 0 1 5 5v65a5 5 0 0 1-5 5h-197.9a5 5 0 0 1-5-5z" fill="#fff"/><path d="M2090.3 997.5v-35a5 5 0 0 1 5-5h197.92a5 5 0 0 1 5 5v35" fill="#ccc"/><path d="M2090.3 962.5a5 5 0 0 1 5-5h197.92a5 5 0 0 1 5 5v65a5 5 0 0 1-5 5h-197.9a5 5 0 0 1-5-5zM2090.3 997.5h207.92" stroke="#000" fill="none"/><use xlink:href="#r" transform="matrix(1,0,0,1,2100.312483816969,957.4999999999998) translate(52.074074074074076 25.15555555555556)"/><use xlink:href="#s" transform="matrix(1,0,0,1,2095.312483816969,999.9999999999998) translate(11.2 20.155555555555555)"/><path d="M1443.14 505a5 5 0 0 1 5-5h197.9a5 5 0 0 1 5 5v65a5 5 0 0 1-5 5h-197.9a5 5 0 0 1-5-5z" fill="#fff"/><path d="M1443.14 540v-35a5 5 0 0 1 5-5h197.9a5 5 0 0 1 5 5v35" fill="#ccc"/><path d="M1443.14 505a5 5 0 0 1 5-5h197.9a5 5 0 0 1 5 5v65a5 5 0 0 1-5 5h-197.9a5 5 0 0 1-5-5zM1443.14 540h207.9" stroke="#000" fill="none"/><use xlink:href="#t" transform="matrix(1,0,0,1,1453.1367635369386,500) translate(63.95061728395062 25.15555555555556)"/><use xlink:href="#m" transform="matrix(1,0,0,1,1448.1367635369386,542.5) translate(11.2 20.155555555555555)"/><path d="M1013.95 750c0 27.6-31.34 50-70 50s-70-22.4-70-50 31.34-50 70-50 70 22.4 70 50z" stroke="#000" fill="#fff"/><use xlink:href="#u" transform="matrix(1,0,0,1,873.9544121543538,700) translate(36.004999999999995 55.025)"/><path d="M1617.1 755c0 27.6-31.35 50-70 50-38.67 0-70-22.4-70-50s31.33-50 70-50c38.65 0 70 22.4 70 50z" stroke="#000" fill="#fff"/><use xlink:href="#v" transform="matrix(1,0,0,1,1477.0911756912924,705) translate(38.529999999999994 55.025)"/><path d="M2264.27 770c0 27.6-31.34 50-70 50s-70-22.4-70-50 31.34-50 70-50 70 22.4 70 50z" stroke="#000" fill="#fff"/><use xlink:href="#v" transform="matrix(1,0,0,1,2124.266895971323,720) translate(38.529999999999994 55.025)"/><path d="M1547.1 807v151" stroke="#000" stroke-width="3" fill="none"/><path d="M1547.1 805.5l1.5-.05v1.6h-3v-1.6zM1548.6 959.5h-3v-1.54h3z" stroke="#000" stroke-width=".05"/><use xlink:href="#w" transform="matrix(1,0,0,1,1555.0911756912924,924.9333333333327) translate(0 14.4)"/><path d="M943.95 802v156" stroke="#000" stroke-width="3" fill="none"/><path d="M943.95 800.5l1.5-.05v1.6h-3v-1.6zM945.45 959.5h-3v-1.54h3z" stroke="#000" stroke-width=".05"/><use xlink:href="#w" transform="matrix(1,0,0,1,951.9544121543538,935.8229011567256) translate(0 14.4)"/><path d="M943.95 698V532a12 12 0 0 1 12-12h485.2" stroke="#000" stroke-width="3" fill="none"/><path d="M945.45 699.55l-1.5-.05-1.5.05v-1.6h3zM1442.64 521.5h-1.54v-3h1.54z" stroke="#000" stroke-width=".05"/><use xlink:href="#w" transform="matrix(1,0,0,1,1368.7673018205733,494.40000000241093) translate(0 14.4)"/><path d="M1547.1 703V577" stroke="#000" stroke-width="3" fill="none"/><path d="M1548.6 704.55l-1.5-.05-1.5.05v-1.6h3zM1548.6 577.04h-3v-1.54h3z" stroke="#000" stroke-width=".05"/><use xlink:href="#x" transform="matrix(1,0,0,1,1555.0911756912924,594.5333333333333) translate(0 14.4)"/><path d="M2194.27 822v133.5" stroke="#000" stroke-width="3" fill="none"/><path d="M2194.27 820.5l1.5-.05v1.6h-3v-1.6zM2195.77 957h-3v-1.54h3z" stroke="#000" stroke-width=".05"/><use xlink:href="#x" transform="matrix(1,0,0,1,2149.366895971323,933.4277903169489) translate(0 14.4)"/><path d="M840 1885a5 5 0 0 1 5-5h197.9a5 5 0 0 1 5 5v170a5 5 0 0 1-5 5H845a5 5 0 0 1-5-5z" fill="#fff"/><path d="M840 1955v36h207.9v-36M840 2025v30a5 5 0 0 0 5 5h197.9a5 5 0 0 0 5-5v-30" fill="#e6e6e6"/><path d="M840 1920v-35a5 5 0 0 1 5-5h197.9a5 5 0 0 1 5 5v35" fill="#ccc"/><path d="M840 1885a5 5 0 0 1 5-5h197.9a5 5 0 0 1 5 5v170a5 5 0 0 1-5 5H845a5 5 0 0 1-5-5zM840 1920h207.9" stroke="#000" fill="none"/><use xlink:href="#y" transform="matrix(1,0,0,1,850,1880) translate(29.851851851851844 25.15555555555556)"/><use xlink:href="#z" transform="matrix(1,0,0,1,850,1880) translate(114.69135802469137 25.15555555555556)"/><use xlink:href="#A" transform="matrix(1,0,0,1,845,1922.5) translate(11.2 20.155555555555555)"/><use xlink:href="#c" transform="matrix(1,0,0,1,845,1957.5) translate(11.2 20.155555555555555)"/><use xlink:href="#B" transform="matrix(1,0,0,1,845,1992.5) translate(11.2 20.155555555555555)"/><use xlink:href="#i" transform="matrix(1,0,0,1,845,2027.5) translate(11.2 20.155555555555555)"/><use xlink:href="#j" transform="matrix(1,0,0,1,845,2027.5) translate(48.582716049382725 20.155555555555555)"/><path d="M1771.6 1200a5 5 0 0 1 5-5h197.9a5 5 0 0 1 5 5v65a5 5 0 0 1-5 5h-197.9a5 5 0 0 1-5-5z" fill="#fff"/><path d="M1771.6 1235v-35a5 5 0 0 1 5-5h197.9a5 5 0 0 1 5 5v35" fill="#ccc"/><path d="M1771.6 1200a5 5 0 0 1 5-5h197.9a5 5 0 0 1 5 5v65a5 5 0 0 1-5 5h-197.9a5 5 0 0 1-5-5zM1771.6 1235h207.9" stroke="#000" fill="none"/><use xlink:href="#C" transform="matrix(1,0,0,1,1781.591237111111,1195) translate(47.185185185185176 25.15555555555556)"/><use xlink:href="#m" transform="matrix(1,0,0,1,1776.591237111111,1237.5) translate(11.2 20.155555555555555)"/><path d="M1875.55 1069.5V1193" stroke="#000" stroke-width="3" fill="none"/><path d="M1875.55 1068l1.5-.05v1.6h-3v-1.6zM1877.05 1194.5h-3v-1.54h3z" stroke="#000" stroke-width=".05"/><use xlink:href="#w" transform="matrix(1,0,0,1,1883.5456492654648,1172.7851711648873) translate(0 14.4)"/><path d="M1803.55 1017.5h-150.5" stroke="#000" stroke-width="3" fill="none"/><path d="M1805.05 1017.5l.05 1.5h-1.6v-3h1.6zM1653.1 1019h-1.55v-3h1.54z" stroke="#000" stroke-width=".05"/><use xlink:href="#w" transform="matrix(1,0,0,1,1659.5225522144037,991.9000087757573) translate(0 14.4)"/><path d="M1478.4 1685a5 5 0 0 1 5-5h197.9a5 5 0 0 1 5 5v62a5 5 0 0 1-5 5h-197.9a5 5 0 0 1-5-5z" fill="#fff"/><path d="M1478.4 1720v-35a5 5 0 0 1 5-5h197.9a5 5 0 0 1 5 5v35" fill="#ccc"/><path d="M1478.4 1685a5 5 0 0 1 5-5h197.9a5 5 0 0 1 5 5v62a5 5 0 0 1-5 5h-197.9a5 5 0 0 1-5-5zM1478.4 1720h207.9" stroke="#000" fill="none"/><use xlink:href="#D" transform="matrix(1,0,0,1,1488.396628422679,1680) translate(60.46913580246914 25.15555555555556)"/><path d="M840 1565a5 5 0 0 1 5-5h197.9a5 5 0 0 1 5 5v62a5 5 0 0 1-5 5H845a5 5 0 0 1-5-5z" fill="#fff"/><path d="M840 1600v-35a5 5 0 0 1 5-5h197.9a5 5 0 0 1 5 5v35" fill="#ccc"/><path d="M840 1565a5 5 0 0 1 5-5h197.9a5 5 0 0 1 5 5v62a5 5 0 0 1-5 5H845a5 5 0 0 1-5-5zM840 1600h207.9" stroke="#000" fill="none"/><use xlink:href="#E" transform="matrix(1,0,0,1,850,1560) translate(46.66666666666666 25.15555555555556)"/><path d="M2194.27 718V532a12 12 0 0 0-12-12h-529.22" stroke="#000" stroke-width="3" fill="none"/><path d="M2195.77 719.55l-1.5-.05-1.5.05v-1.6h3zM1653.08 521.5h-1.53v-3h1.53z" stroke="#000" stroke-width=".05"/><use xlink:href="#F" transform="matrix(1,0,0,1,1702.1421308188499,494.40000000000003) translate(0 14.4)"/><path d="M1137.9 1200a5 5 0 0 1 5-5h197.9a5 5 0 0 1 5 5v135a5 5 0 0 1-5 5h-197.9a5 5 0 0 1-5-5z" fill="#fff"/><path d="M1137.9 1270v36h207.9v-36" fill="#e6e6e6"/><path d="M1137.9 1235v-35a5 5 0 0 1 5-5h197.9a5 5 0 0 1 5 5v35" fill="#ccc"/><path d="M1137.9 1200a5 5 0 0 1 5-5h197.9a5 5 0 0 1 5 5v135a5 5 0 0 1-5 5h-197.9a5 5 0 0 1-5-5zM1137.9 1235h207.9" stroke="#000" fill="none"/><use xlink:href="#G" transform="matrix(1,0,0,1,1147.8865356469528,1195) translate(45.67901234567901 25.15555555555556)"/><use xlink:href="#H" transform="matrix(1,0,0,1,1142.8865356469528,1237.5) translate(11.2 20.155555555555555)"/><use xlink:href="#p" transform="matrix(1,0,0,1,1142.8865356469528,1272.5) translate(11.2 20.155555555555555)"/><use xlink:href="#I" transform="matrix(1,0,0,1,1142.8865356469528,1272.5) translate(53.57037037037037 20.155555555555555)"/><use xlink:href="#J" transform="matrix(1,0,0,1,1142.8865356469528,1307.5) translate(11.2 20.155555555555555)"/><path d="M1945.55 1017.5c0 27.6-31.34 50-70 50s-70-22.4-70-50 31.34-50 70-50 70 22.4 70 50z" stroke="#000" fill="#fff"/><use xlink:href="#v" transform="matrix(1,0,0,1,1805.5456492654648,967.5) translate(38.529999999999994 55.025)"/><path d="M1945.55 1479.92c0 27.62-31.34 50-70 50s-70-22.38-70-50c0-27.6 31.34-50 70-50s70 22.4 70 50z" stroke="#000" fill="#fff"/><use xlink:href="#K" transform="matrix(1,0,0,1,1805.5456492654648,1429.92305492373) translate(40.57999999999999 55.025)"/><path d="M1875.55 1427.92V1272" stroke="#000" stroke-width="3" fill="none"/><path d="M1877.05 1429.48l-1.5-.06-1.5.06v-1.6h3zM1877.05 1272.04h-3v-1.54h3z" stroke="#000" stroke-width=".05"/><use xlink:href="#w" transform="matrix(1,0,0,1,1883.5456492654648,1274.303228160664) translate(0 14.4)"/><path d="M1477.1 1955a5 5 0 0 1 5-5H1680a5 5 0 0 1 5 5v65a5 5 0 0 1-5 5h-197.9a5 5 0 0 1-5-5z" fill="#fff"/><path d="M1477.1 1990v-35a5 5 0 0 1 5-5H1680a5 5 0 0 1 5 5v35" fill="#ccc"/><path d="M1477.1 1955a5 5 0 0 1 5-5H1680a5 5 0 0 1 5 5v65a5 5 0 0 1-5 5h-197.9a5 5 0 0 1-5-5zM1477.1 1990H1685" stroke="#000" fill="none"/><use xlink:href="#L" transform="matrix(1,0,0,1,1487.0911756912924,1950) translate(39.283950617283935 25.15555555555556)"/><use xlink:href="#s" transform="matrix(1,0,0,1,1482.0911756912924,1992.5) translate(11.2 20.155555555555555)"/><path d="M1652.35 1851c0 27.6-31.34 50-70 50s-70-22.4-70-50 31.34-50 70-50 70 22.4 70 50z" stroke="#000" fill="#fff"/><use xlink:href="#M" transform="matrix(1,0,0,1,1512.3510405770328,1801) translate(65.00500000000001 55.025)"/><path d="M1311.84 1017.5c0 27.6-31.34 50-70 50s-70-22.4-70-50 31.34-50 70-50 70 22.4 70 50z" stroke="#000" fill="#fff"/><use xlink:href="#v" transform="matrix(1,0,0,1,1171.8409478013066,967.4999999999998) translate(38.529999999999994 55.025)"/><path d="M1313.84 1017.5H1441.13" stroke="#000" stroke-width="3" fill="none"/><path d="M1313.88 1019h-1.6l.06-1.5-.05-1.5h1.58zM1442.64 1019h-1.54v-3h1.54z" stroke="#000" stroke-width=".05"/><use xlink:href="#w" transform="matrix(1,0,0,1,1391.4266554471008,991.900005584574) translate(0 14.4)"/><path d="M1241.84 1069.5V1193" stroke="#000" stroke-width="3" fill="none"/><path d="M1241.84 1068l1.5-.05v1.6h-3v-1.6zM1243.34 1194.5h-3v-1.54h3z" stroke="#000" stroke-width=".05"/><use xlink:href="#x" transform="matrix(1,0,0,1,1249.8409478013064,1164.3949530469947) translate(0 14.4)"/><path d="M943.95 1858.88v-146.96a12 12 0 0 1 12-12h254.94a.04.04 0 0 1 .03.04.04.04 0 0 0 .03.04h265.44" stroke="#000" stroke-width="3" fill="none"/><path d="M943.95 1874.65l-4.63-14.27h9.27z" stroke="#000" stroke-width="3" fill="#fff"/><path d="M1477.9 1701.5h-1.54v-3h1.54z" stroke="#000" stroke-width=".05"/><path d="M943.95 1634v224.88" stroke="#000" stroke-width="3" fill="none"/><path d="M945.45 1634.04h-3v-1.54h3z" stroke="#000" stroke-width=".05"/><path d="M943.95 1874.65l-4.63-14.27h9.27z" stroke="#000" stroke-width="3" fill="#fff"/><use xlink:href="#N" transform="matrix(1,0,0,1,951.9544121543538,1831.0551050708902) translate(0 14.4)"/><path d="M1878.8 1600.92V1688a12 12 0 0 1-12 12h-178.5" stroke="#000" stroke-width="3" fill="none"/><path d="M1880.3 1600.96h-3v-1.54h3zM1688.34 1701.5h-1.53v-3h1.54z" stroke="#000" stroke-width=".05"/><use xlink:href="#F" transform="matrix(1,0,0,1,1728.4761373556862,1674.4000039529526) translate(0 14.4)"/><path d="M1582.35 1799v-45" stroke="#000" stroke-width="3" fill="none"/><path d="M1583.85 1800.55l-1.5-.05-1.5.05v-1.6h3zM1583.85 1754.04h-3v-1.54h3z" stroke="#000" stroke-width=".05"/><use xlink:href="#w" transform="matrix(1,0,0,1,1590.3510405770328,1756.9319818775614) translate(0 14.4)"/><path d="M1013.95 1462.5c0 27.6-31.34 50-70 50s-70-22.4-70-50 31.34-50 70-50 70 22.4 70 50z" stroke="#000" fill="#fff"/><use xlink:href="#O" transform="matrix(1,0,0,1,873.9544121543538,1412.5) translate(52.029999999999994 55.025)"/><path d="M1539.1 1678v-203.5a12 12 0 0 0-12-12h-511.14" stroke="#000" stroke-width="3" fill="none"/><path d="M1540.6 1679.5h-3v-1.54h3zM1016 1464h-1.6l.06-1.5-.06-1.5h1.6z" stroke="#000" stroke-width=".05"/><use xlink:href="#F" transform="matrix(1,0,0,1,1547.090670430224,1636.9333333333334) translate(0 14.4)"/><path d="M943.95 1514.5v43.5" stroke="#000" stroke-width="3" fill="none"/><path d="M943.95 1513l1.5-.05v1.6h-3v-1.6zM945.45 1559.5h-3v-1.54h3z" stroke="#000" stroke-width=".05"/><use xlink:href="#F" transform="matrix(1,0,0,1,951.9544121543538,1525.4501803159014) translate(0 14.4)"/><path d="M943.95 1410.5V1247" stroke="#000" stroke-width="3" fill="none"/><path d="M945.45 1412.05l-1.5-.05-1.5.05v-1.6h3zM945.45 1247.04h-3v-1.54h3z" stroke="#000" stroke-width=".05"/><use xlink:href="#w" transform="matrix(1,0,0,1,951.9544121543538,1256.107081869174) translate(0 14.4)"/><path d="M2100 825a5 5 0 0 1 5-5h197.9a5 5 0 0 1 5 5v43a5 5 0 0 1-5 5H2105a5 5 0 0 1-5-5z" stroke="#000" fill="#fff"/><use xlink:href="#P" transform="matrix(1,0,0,1,2108,828) translate(5.599999999999994 22.1)"/><use xlink:href="#Q" transform="matrix(1,0,0,1,2108,828) translate(16.549999999999994 22.1)"/><use xlink:href="#R" transform="matrix(1,0,0,1,2108,828) translate(59.5 22.1)"/><use xlink:href="#S" transform="matrix(1,0,0,1,2108,828) translate(84.5 22.1)"/><path d="M1311.84 1579.92c0 27.62-31.34 50-70 50s-70-22.38-70-50c0-27.6 31.34-50 70-50s70 22.4 70 50z" stroke="#000" fill="#fff"/><use xlink:href="#T" transform="matrix(1,0,0,1,1171.8409478013066,1529.92305492373) translate(43.58 55.025)"/><path d="M1169.84 1579.92h-59.93a.04.04 0 0 0-.03.04.04.04 0 0 1-.03.04h-59.93" stroke="#000" stroke-width="3" fill="none"/><path d="M1171.34 1579.92l.05 1.5h-1.6v-3h1.6zM1049.95 1581.5h-1.54v-3h1.55z" stroke="#000" stroke-width=".05"/><use xlink:href="#F" transform="matrix(1,0,0,1,1057.0731018847282,1554.4) translate(0 14.4)"/><path d="M1241.84 1527.92V1342" stroke="#000" stroke-width="3" fill="none"/><path d="M1243.34 1529.48l-1.5-.06-1.5.06v-1.6h3zM1243.34 1342.04h-3v-1.54h3z" stroke="#000" stroke-width=".05"/><use xlink:href="#x" transform="matrix(1,0,0,1,1196.9409478013065,1352.9333333333334) translate(0 14.4)"/><path d="M1582.35 1903v45" stroke="#000" stroke-width="3" fill="none"/><path d="M1582.35 1901.5l1.5-.05v1.6h-3v-1.6zM1583.86 1949.5h-3v-1.54h3z" stroke="#000" stroke-width=".05"/><use xlink:href="#F" transform="matrix(1,0,0,1,1537.4565284302705,1927.0142291138648) translate(0 14.4)"/><path d="M1760 1534.92a5 5 0 0 1 5-5h227.6a5 5 0 0 1 5 5v59a5 5 0 0 1-5 5H1765a5 5 0 0 1-5-5z" stroke="#000" fill="#fff"/><use xlink:href="#P" transform="matrix(1,0,0,1,1768,1537.92305492373) translate(0 19.299999999999997)"/><use xlink:href="#Q" transform="matrix(1,0,0,1,1768,1537.92305492373) translate(10.95 19.299999999999997)"/><use xlink:href="#R" transform="matrix(1,0,0,1,1768,1537.92305492373) translate(53.900000000000006 19.299999999999997)"/><use xlink:href="#U" transform="matrix(1,0,0,1,1768,1537.92305492373) translate(78.9 19.299999999999997)"/><use xlink:href="#V" transform="matrix(1,0,0,1,1768,1537.92305492373) translate(128.9 19.299999999999997)"/><use xlink:href="#W" transform="matrix(1,0,0,1,1768,1537.92305492373) translate(0 40.9)"/><use xlink:href="#X" transform="matrix(1,0,0,1,1768,1537.92305492373) translate(10.95 40.9)"/><use xlink:href="#Y" transform="matrix(1,0,0,1,1768,1537.92305492373) translate(64.85000000000001 40.9)"/><use xlink:href="#Z" transform="matrix(1,0,0,1,1768,1537.92305492373) translate(89.85000000000001 40.9)"/><path d="M2264.27 1294.87c0 24.92-31.34 45.13-70 45.13s-70-20.2-70-45.13c0-24.93 31.34-45.14 70-45.14s70 20.2 70 45.14z" stroke="#000" fill="#fff"/><use xlink:href="#aa" transform="matrix(1,0,0,1,2124.266895971323,1249.7333333333333) translate(39.529999999999994 48.525)"/><path d="M1687 2007.5h495.27a12 12 0 0 0 12-12v-463.58" stroke="#000" stroke-width="3" fill="none"/><path d="M1687.04 2009h-1.54v-3h1.54zM2195.77 1531.96h-3v-1.54h3z" stroke="#000" stroke-width=".05"/><g><use xlink:href="#w" transform="matrix(1,0,0,1,1695.8458035999652,2011.5000053893125) translate(0 14.4)"/></g><g><use xlink:href="#ab" transform="matrix(1,0,0,1,2202.2668959713237,1533.6116888578983) translate(0 14.4)"/><use xlink:href="#ac" transform="matrix(1,0,0,1,2202.2668959713237,1533.6116888578983) translate(25.95 14.4)"/></g><path d="M2194.27 1247.73V1034.5" stroke="#000" stroke-width="3" fill="none"/><path d="M2195.77 1249.3l-1.5-.07-1.5.06v-1.6h3zM2195.77 1034.54h-3V1033h3z" stroke="#000" stroke-width=".05"/><g><use xlink:href="#ab" transform="matrix(1,0,0,1,2202.266895971323,1045.3979340167782) translate(0 14.4)"/><use xlink:href="#ad" transform="matrix(1,0,0,1,2202.266895971323,1045.3979340167782) translate(25.95 14.4)"/></g><path d="M2060 1459.92a5 5 0 0 1 5-5h258.53a5 5 0 0 1 5 5v65a5 5 0 0 1-5 5H2065a5 5 0 0 1-5-5z" fill="#fff"/><path d="M2060 1494.92v-35a5 5 0 0 1 5-5h258.53a5 5 0 0 1 5 5v35" fill="#ccc"/><path d="M2060 1459.92a5 5 0 0 1 5-5h258.53a5 5 0 0 1 5 5v65a5 5 0 0 1-5 5H2065a5 5 0 0 1-5-5zM2060 1494.92h268.53" stroke="#000" fill="none"/><g><use xlink:href="#ae" transform="matrix(1,0,0,1,2070,1454.92305492373) translate(40.12962962962963 25.15555555555556)"/><use xlink:href="#af" transform="matrix(1,0,0,1,2070,1454.92305492373) translate(114.15432098765432 25.15555555555556)"/></g><g><use xlink:href="#s" transform="matrix(1,0,0,1,2065,1497.42305492373) translate(11.2 20.155555555555555)"/></g><path d="M2194.27 1342v110.92" stroke="#000" stroke-width="3" fill="none"/><path d="M2194.27 1340.5l1.5-.05v1.6h-3v-1.6zM2195.77 1454.42h-3v-1.54h3z" stroke="#000" stroke-width=".05"/><g><use xlink:href="#F" transform="matrix(1,0,0,1,2202.2668959713233,1432.62310492373) translate(0 14.4)"/></g><path d="M2264.27 1745.13c0 24.93-31.34 45.14-70 45.14s-70-20.2-70-45.14c0-24.92 31.34-45.13 70-45.13s70 20.2 70 45.13z" stroke="#000" fill="#fff"/><g><use xlink:href="#ag" transform="matrix(1,0,0,1,2124.2668959713233,1700) translate(30.57999999999999 48.525)"/></g><defs><path d="M30-248c87 1 191-15 191 75 0 78-77 80-158 76V0H30v-248zm33 125c57 0 124 11 124-50 0-59-68-47-124-48v98" id="ah"/><path d="M141-36C126-15 110 5 73 4 37 3 15-17 15-53c-1-64 63-63 125-63 3-35-9-54-41-54-24 1-41 7-42 31l-33-3c5-37 33-52 76-52 45 0 72 20 72 64v82c-1 20 7 32 28 27v20c-31 9-61-2-59-35zM48-53c0 20 12 33 32 33 41-3 63-29 60-74-43 2-92-5-92 41" id="ai"/><path d="M59-47c-2 24 18 29 38 22v24C64 9 27 4 27-40v-127H5v-23h24l9-43h21v43h35v23H59v120" id="aj"/><path d="M24-231v-30h32v30H24zM24 0v-190h32V0H24" id="ak"/><path d="M100-194c63 0 86 42 84 106H49c0 40 14 67 53 68 26 1 43-12 49-29l28 8c-11 28-37 45-77 45C44 4 14-33 15-96c1-61 26-98 85-98zm52 81c6-60-76-77-97-28-3 7-6 17-6 28h103" id="al"/><path d="M117-194c89-4 53 116 60 194h-32v-121c0-31-8-49-39-48C34-167 62-67 57 0H25l-1-190h30c1 10-1 24 2 32 11-22 29-35 61-36" id="am"/><g id="a"><use transform="matrix(0.04938271604938272,0,0,0.04938271604938272,0,0)" xlink:href="#ah"/><use transform="matrix(0.04938271604938272,0,0,0.04938271604938272,11.851851851851853,0)" xlink:href="#ai"/><use transform="matrix(0.04938271604938272,0,0,0.04938271604938272,21.7283950617284,0)" xlink:href="#aj"/><use transform="matrix(0.04938271604938272,0,0,0.04938271604938272,26.666666666666668,0)" xlink:href="#ak"/><use transform="matrix(0.04938271604938272,0,0,0.04938271604938272,30.567901234567906,0)" xlink:href="#al"/><use transform="matrix(0.04938271604938272,0,0,0.04938271604938272,40.44444444444445,0)" xlink:href="#am"/><use transform="matrix(0.04938271604938272,0,0,0.04938271604938272,50.320987654320994,0)" xlink:href="#aj"/></g><path d="M190 0L58-211 59 0H30v-248h39L202-35l-2-213h31V0h-41" id="an"/><path d="M33 0v-248h34V0H33" id="ao"/><path d="M185-189c-5-48-123-54-124 2 14 75 158 14 163 119 3 78-121 87-175 55-17-10-28-26-33-46l33-7c5 56 141 63 141-1 0-78-155-14-162-118-5-82 145-84 179-34 5 7 8 16 11 25" id="ap"/><g id="b"><use transform="matrix(0.04938271604938272,0,0,0.04938271604938272,0,0)" xlink:href="#an"/><use transform="matrix(0.04938271604938272,0,0,0.04938271604938272,12.790123456790125,0)" xlink:href="#ao"/><use transform="matrix(0.04938271604938272,0,0,0.04938271604938272,17.7283950617284,0)" xlink:href="#ap"/><use transform="matrix(0.04938271604938272,0,0,0.04938271604938272,29.580246913580254,0)" xlink:href="#ap"/><path d="M-.9 1.23h43.22v1.3H-.88z"/></g><path d="M100-194c62-1 85 37 85 99 1 63-27 99-86 99S16-35 15-95c0-66 28-99 85-99zM99-20c44 1 53-31 53-75 0-43-8-75-51-75s-53 32-53 75 10 74 51 75" id="aq"/><path d="M210-169c-67 3-38 105-44 169h-31v-121c0-29-5-50-35-48C34-165 62-65 56 0H25l-1-190h30c1 10-1 24 2 32 10-44 99-50 107 0 11-21 27-35 58-36 85-2 47 119 55 194h-31v-121c0-29-5-49-35-48" id="ar"/><g id="c"><use transform="matrix(0.04938271604938272,0,0,0.04938271604938272,0,0)" xlink:href="#an"/><use transform="matrix(0.04938271604938272,0,0,0.04938271604938272,12.790123456790125,0)" xlink:href="#aq"/><use transform="matrix(0.04938271604938272,0,0,0.04938271604938272,22.66666666666667,0)" xlink:href="#ar"/></g><path d="M114-163C36-179 61-72 57 0H25l-1-190h30c1 12-1 29 2 39 6-27 23-49 58-41v29" id="as"/><path d="M100-194c63 0 86 42 84 106H49c0 40 14 67 53 68 26 1 43-12 49-29l28 8c-11 28-37 45-77 45C44 4 14-33 15-96c1-61 26-98 85-98zm52 81c6-60-76-77-97-28-3 7-6 17-6 28h103zm-74-98c8-23 27-35 38-54h36v5l-58 49H78" id="at"/><g id="d"><use transform="matrix(0.04938271604938272,0,0,0.04938271604938272,0,0)" xlink:href="#ah"/><use transform="matrix(0.04938271604938272,0,0,0.04938271604938272,11.851851851851853,0)" xlink:href="#as"/><use transform="matrix(0.04938271604938272,0,0,0.04938271604938272,17.728395061728396,0)" xlink:href="#at"/><use transform="matrix(0.04938271604938272,0,0,0.04938271604938272,27.60493827160494,0)" xlink:href="#am"/><use transform="matrix(0.04938271604938272,0,0,0.04938271604938272,37.48148148148148,0)" xlink:href="#aq"/><use transform="matrix(0.04938271604938272,0,0,0.04938271604938272,47.358024691358025,0)" xlink:href="#ar"/></g><path d="M143 4C61 4 22-44 18-125c-5-107 100-154 193-111 17 8 29 25 37 43l-32 9c-13-25-37-40-76-40-61 0-88 39-88 99 0 61 29 100 91 101 35 0 62-11 79-27v-45h-74v-28h105v86C228-13 192 4 143 4" id="au"/><g id="e"><use transform="matrix(0.04938271604938272,0,0,0.04938271604938272,0,0)" xlink:href="#au"/><use transform="matrix(0.04938271604938272,0,0,0.04938271604938272,13.827160493827162,0)" xlink:href="#al"/><use transform="matrix(0.04938271604938272,0,0,0.04938271604938272,23.703703703703706,0)" xlink:href="#am"/><use transform="matrix(0.04938271604938272,0,0,0.04938271604938272,33.580246913580254,0)" xlink:href="#as"/><use transform="matrix(0.04938271604938272,0,0,0.04938271604938272,39.4567901234568,0)" xlink:href="#al"/></g><path d="M30-248c118-7 216 8 213 122C240-48 200 0 122 0H30v-248zM63-27c89 8 146-16 146-99s-60-101-146-95v194" id="av"/><g id="f"><use transform="matrix(0.04938271604938272,0,0,0.04938271604938272,0,0)" xlink:href="#av"/><use transform="matrix(0.04938271604938272,0,0,0.04938271604938272,12.790123456790125,0)" xlink:href="#ai"/><use transform="matrix(0.04938271604938272,0,0,0.04938271604938272,22.66666666666667,0)" xlink:href="#aj"/><use transform="matrix(0.04938271604938272,0,0,0.04938271604938272,27.604938271604947,0)" xlink:href="#al"/></g><path d="M85-194c31 0 48 13 60 33l-1-100h32l1 261h-30c-2-10 0-23-3-31C134-8 116 4 85 4 32 4 16-35 15-94c0-66 23-100 70-100zm9 24c-40 0-46 34-46 75 0 40 6 74 45 74 42 0 51-32 51-76 0-42-9-74-50-73" id="aw"/><g id="g"><use transform="matrix(0.04938271604938272,0,0,0.04938271604938272,0,0)" xlink:href="#aw"/><use transform="matrix(0.04938271604938272,0,0,0.04938271604938272,9.876543209876544,0)" xlink:href="#al"/></g><path d="M135-143c-3-34-86-38-87 0 15 53 115 12 119 90S17 21 10-45l28-5c4 36 97 45 98 0-10-56-113-15-118-90-4-57 82-63 122-42 12 7 21 19 24 35" id="ax"/><path d="M96-169c-40 0-48 33-48 73s9 75 48 75c24 0 41-14 43-38l32 2c-6 37-31 61-74 61-59 0-76-41-82-99-10-93 101-131 147-64 4 7 5 14 7 22l-32 3c-4-21-16-35-41-35" id="ay"/><g id="h"><use transform="matrix(0.04938271604938272,0,0,0.04938271604938272,0,0)" xlink:href="#am"/><use transform="matrix(0.04938271604938272,0,0,0.04938271604938272,9.876543209876544,0)" xlink:href="#ai"/><use transform="matrix(0.04938271604938272,0,0,0.04938271604938272,19.75308641975309,0)" xlink:href="#ak"/><use transform="matrix(0.04938271604938272,0,0,0.04938271604938272,23.654320987654323,0)" xlink:href="#ax"/><use transform="matrix(0.04938271604938272,0,0,0.04938271604938272,32.543209876543216,0)" xlink:href="#ax"/><use transform="matrix(0.04938271604938272,0,0,0.04938271604938272,41.4320987654321,0)" xlink:href="#ai"/><use transform="matrix(0.04938271604938272,0,0,0.04938271604938272,51.308641975308646,0)" xlink:href="#am"/><use transform="matrix(0.04938271604938272,0,0,0.04938271604938272,61.18518518518519,0)" xlink:href="#ay"/><use transform="matrix(0.04938271604938272,0,0,0.04938271604938272,70.07407407407408,0)" xlink:href="#al"/></g><path d="M240 0l2-218c-23 76-54 145-80 218h-23L58-218 59 0H30v-248h44l77 211c21-75 51-140 76-211h43V0h-30" id="az"/><path d="M24 0v-261h32V0H24" id="aA"/><g id="i"><use transform="matrix(0.04938271604938272,0,0,0.04938271604938272,0,0)" xlink:href="#az"/><use transform="matrix(0.04938271604938272,0,0,0.04938271604938272,14.765432098765434,0)" xlink:href="#ai"/><use transform="matrix(0.04938271604938272,0,0,0.04938271604938272,24.641975308641978,0)" xlink:href="#ak"/><use transform="matrix(0.04938271604938272,0,0,0.04938271604938272,28.543209876543212,0)" xlink:href="#aA"/></g><path d="M87 75C49 33 22-17 22-94c0-76 28-126 65-167h31c-38 41-64 92-64 168S80 34 118 75H87" id="aB"/><path d="M101-251c68 0 85 55 85 127S166 4 100 4C33 4 14-52 14-124c0-73 17-127 87-127zm-1 229c47 0 54-49 54-102s-4-102-53-102c-51 0-55 48-55 102 0 53 5 102 54 102" id="aC"/><path d="M68-38c1 34 0 65-14 84H32c9-13 17-26 17-46H33v-38h35" id="aD"/><path d="M27 0v-27h64v-190l-56 39v-29l58-41h29v221h61V0H27" id="aE"/><path d="M33-261c38 41 65 92 65 168S71 34 33 75H2C39 34 66-17 66-93S39-220 2-261h31" id="aF"/><g id="j"><use transform="matrix(0.04938271604938272,0,0,0.04938271604938272,0,0)" xlink:href="#aB"/><use transform="matrix(0.04938271604938272,0,0,0.04938271604938272,5.8765432098765435,0)" xlink:href="#aC"/><use transform="matrix(0.04938271604938272,0,0,0.04938271604938272,15.753086419753087,0)" xlink:href="#aD"/><use transform="matrix(0.04938271604938272,0,0,0.04938271604938272,20.69135802469136,0)" xlink:href="#aE"/><use transform="matrix(0.04938271604938272,0,0,0.04938271604938272,30.567901234567906,0)" xlink:href="#aF"/></g><path d="M127-220V0H93v-220H8v-28h204v28h-85" id="aG"/><path d="M115-194c55 1 70 41 70 98S169 2 115 4C84 4 66-9 55-30l1 105H24l-1-265h31l2 30c10-21 28-34 59-34zm-8 174c40 0 45-34 45-75s-6-73-45-74c-42 0-51 32-51 76 0 43 10 73 51 73" id="aH"/><path d="M106-169C34-169 62-67 57 0H25v-261h32l-1 103c12-21 28-36 61-36 89 0 53 116 60 194h-32v-121c2-32-8-49-39-48" id="aI"/><g id="k"><use transform="matrix(0.04938271604938272,0,0,0.04938271604938272,0,0)" xlink:href="#aG"/><use transform="matrix(0.04938271604938272,0,0,0.04938271604938272,10.814814814814815,0)" xlink:href="#at"/><use transform="matrix(0.04938271604938272,0,0,0.04938271604938272,20.69135802469136,0)" xlink:href="#aA"/><use transform="matrix(0.04938271604938272,0,0,0.04938271604938272,24.592592592592595,0)" xlink:href="#at"/><use transform="matrix(0.04938271604938272,0,0,0.04938271604938272,34.46913580246914,0)" xlink:href="#aH"/><use transform="matrix(0.04938271604938272,0,0,0.04938271604938272,44.345679012345684,0)" xlink:href="#aI"/><use transform="matrix(0.04938271604938272,0,0,0.04938271604938272,54.22222222222223,0)" xlink:href="#aq"/><use transform="matrix(0.04938271604938272,0,0,0.04938271604938272,64.09876543209877,0)" xlink:href="#am"/><use transform="matrix(0.04938271604938272,0,0,0.04938271604938272,73.97530864197532,0)" xlink:href="#al"/></g><g id="l"><use transform="matrix(0.04938271604938272,0,0,0.04938271604938272,0,0)" xlink:href="#aG"/><use transform="matrix(0.04938271604938272,0,0,0.04938271604938272,10.17283950617284,0)" xlink:href="#as"/><use transform="matrix(0.04938271604938272,0,0,0.04938271604938272,16.049382716049383,0)" xlink:href="#ai"/><use transform="matrix(0.04938271604938272,0,0,0.04938271604938272,25.925925925925927,0)" xlink:href="#ak"/><use transform="matrix(0.04938271604938272,0,0,0.04938271604938272,29.82716049382716,0)" xlink:href="#aj"/><use transform="matrix(0.04938271604938272,0,0,0.04938271604938272,34.76543209876543,0)" xlink:href="#al"/><use transform="matrix(0.04938271604938272,0,0,0.04938271604938272,44.641975308641975,0)" xlink:href="#ar"/><use transform="matrix(0.04938271604938272,0,0,0.04938271604938272,59.407407407407405,0)" xlink:href="#al"/><use transform="matrix(0.04938271604938272,0,0,0.04938271604938272,69.28395061728395,0)" xlink:href="#am"/><use transform="matrix(0.04938271604938272,0,0,0.04938271604938272,79.1604938271605,0)" xlink:href="#aj"/></g><path d="M158-156l-14 65h45v19h-49L124 0h-19l15-72H56L41 0H22l15-72H2v-19h39l14-65H11v-19h48l15-71h20l-16 71h64l16-71h19l-16 71h37v19h-40zm-83 0L61-91h63l14-65H75" id="aJ"/><g id="m"><use transform="matrix(0.04938271604938272,0,0,0.04938271604938272,0,0)" xlink:href="#aJ"/><use transform="matrix(0.04938271604938272,0,0,0.04938271604938272,9.876543209876544,0)" xlink:href="#ao"/><use transform="matrix(0.04938271604938272,0,0,0.04938271604938272,14.814814814814817,0)" xlink:href="#av"/><path d="M-.9 1.23h29.4v1.3H-.9z"/></g><path d="M205 0l-28-72H64L36 0H1l101-248h38L239 0h-34zm-38-99l-47-123c-12 45-31 82-46 123h93" id="aK"/><g id="n"><use transform="matrix(0.04938271604938272,0,0,0.04938271604938272,0,0)" xlink:href="#ao"/><use transform="matrix(0.04938271604938272,0,0,0.04938271604938272,4.938271604938272,0)" xlink:href="#an"/><use transform="matrix(0.04938271604938272,0,0,0.04938271604938272,17.7283950617284,0)" xlink:href="#aK"/><use transform="matrix(0.04938271604938272,0,0,0.04938271604938272,29.580246913580254,0)" xlink:href="#az"/><use transform="matrix(0.04938271604938272,0,0,0.04938271604938272,44.345679012345684,0)" xlink:href="#ao"/></g><g id="o"><use transform="matrix(0.04938271604938272,0,0,0.04938271604938272,0,0)" xlink:href="#aH"/><use transform="matrix(0.04938271604938272,0,0,0.04938271604938272,9.876543209876544,0)" xlink:href="#aI"/><use transform="matrix(0.04938271604938272,0,0,0.04938271604938272,19.75308641975309,0)" xlink:href="#ai"/><use transform="matrix(0.04938271604938272,0,0,0.04938271604938272,29.629629629629633,0)" xlink:href="#as"/><use transform="matrix(0.04938271604938272,0,0,0.04938271604938272,35.50617283950618,0)" xlink:href="#ar"/><use transform="matrix(0.04938271604938272,0,0,0.04938271604938272,50.27160493827161,0)" xlink:href="#ai"/><use transform="matrix(0.04938271604938272,0,0,0.04938271604938272,60.14814814814815,0)" xlink:href="#ay"/><use transform="matrix(0.04938271604938272,0,0,0.04938271604938272,69.03703703703704,0)" xlink:href="#ak"/><use transform="matrix(0.04938271604938272,0,0,0.04938271604938272,72.93827160493828,0)" xlink:href="#al"/><use transform="matrix(0.04938271604938272,0,0,0.04938271604938272,82.81481481481482,0)" xlink:href="#am"/></g><g id="p"><use transform="matrix(0.04938271604938272,0,0,0.04938271604938272,0,0)" xlink:href="#an"/><use transform="matrix(0.04938271604938272,0,0,0.04938271604938272,12.790123456790125,0)" xlink:href="#aq"/><use transform="matrix(0.04938271604938272,0,0,0.04938271604938272,22.66666666666667,0)" xlink:href="#ar"/></g><path d="M84 4C-5 8 30-112 23-190h32v120c0 31 7 50 39 49 72-2 45-101 50-169h31l1 190h-30c-1-10 1-25-2-33-11 22-28 36-60 37" id="aL"/><g id="q"><use transform="matrix(0.04938271604938272,0,0,0.04938271604938272,0,0)" xlink:href="#aH"/><use transform="matrix(0.04938271604938272,0,0,0.04938271604938272,9.876543209876544,0)" xlink:href="#as"/><use transform="matrix(0.04938271604938272,0,0,0.04938271604938272,15.753086419753087,0)" xlink:href="#al"/><use transform="matrix(0.04938271604938272,0,0,0.04938271604938272,25.629629629629633,0)" xlink:href="#ax"/><use transform="matrix(0.04938271604938272,0,0,0.04938271604938272,34.51851851851852,0)" xlink:href="#ay"/><use transform="matrix(0.04938271604938272,0,0,0.04938271604938272,43.407407407407405,0)" xlink:href="#as"/><use transform="matrix(0.04938271604938272,0,0,0.04938271604938272,49.28395061728395,0)" xlink:href="#ak"/><use transform="matrix(0.04938271604938272,0,0,0.04938271604938272,53.185185185185176,0)" xlink:href="#aH"/><use transform="matrix(0.04938271604938272,0,0,0.04938271604938272,63.06172839506172,0)" xlink:href="#aj"/><use transform="matrix(0.04938271604938272,0,0,0.04938271604938272,68,0)" xlink:href="#al"/><use transform="matrix(0.04938271604938272,0,0,0.04938271604938272,77.87654320987654,0)" xlink:href="#aL"/><use transform="matrix(0.04938271604938272,0,0,0.04938271604938272,87.75308641975309,0)" xlink:href="#as"/></g><path d="M177-190C167-65 218 103 67 71c-23-6-38-20-44-43l32-5c15 47 100 32 89-28v-30C133-14 115 1 83 1 29 1 15-40 15-95c0-56 16-97 71-98 29-1 48 16 59 35 1-10 0-23 2-32h30zM94-22c36 0 50-32 50-73 0-42-14-75-50-75-39 0-46 34-46 75s6 73 46 73" id="aM"/><g id="r"><use transform="matrix(0.04938271604938272,0,0,0.04938271604938272,0,0)" xlink:href="#ah"/><use transform="matrix(0.04938271604938272,0,0,0.04938271604938272,11.851851851851853,0)" xlink:href="#ai"/><use transform="matrix(0.04938271604938272,0,0,0.04938271604938272,21.7283950617284,0)" xlink:href="#aj"/><use transform="matrix(0.04938271604938272,0,0,0.04938271604938272,26.666666666666668,0)" xlink:href="#aI"/><use transform="matrix(0.04938271604938272,0,0,0.04938271604938272,36.543209876543216,0)" xlink:href="#aq"/><use transform="matrix(0.04938271604938272,0,0,0.04938271604938272,46.41975308641976,0)" xlink:href="#aA"/><use transform="matrix(0.04938271604938272,0,0,0.04938271604938272,50.320987654320994,0)" xlink:href="#aq"/><use transform="matrix(0.04938271604938272,0,0,0.04938271604938272,60.19753086419754,0)" xlink:href="#aM"/><use transform="matrix(0.04938271604938272,0,0,0.04938271604938272,70.07407407407408,0)" xlink:href="#ak"/><use transform="matrix(0.04938271604938272,0,0,0.04938271604938272,73.97530864197532,0)" xlink:href="#al"/></g><path d="M140-251c81 0 123 46 123 126C263-46 219 4 140 4 59 4 17-45 17-125s42-126 123-126zm0 227c63 0 89-41 89-101s-29-99-89-99c-61 0-89 39-89 99S79-25 140-24" id="aN"/><g id="s"><use transform="matrix(0.04938271604938272,0,0,0.04938271604938272,0,0)" xlink:href="#an"/><use transform="matrix(0.04938271604938272,0,0,0.04938271604938272,12.790123456790125,0)" xlink:href="#aN"/><use transform="matrix(0.04938271604938272,0,0,0.04938271604938272,26.617283950617285,0)" xlink:href="#az"/><path d="M-.9 1.23h43.17v1.3H-.9z"/></g><g id="t"><use transform="matrix(0.04938271604938272,0,0,0.04938271604938272,0,0)" xlink:href="#av"/><use transform="matrix(0.04938271604938272,0,0,0.04938271604938272,12.790123456790125,0)" xlink:href="#aq"/><use transform="matrix(0.04938271604938272,0,0,0.04938271604938272,22.66666666666667,0)" xlink:href="#ax"/><use transform="matrix(0.04938271604938272,0,0,0.04938271604938272,31.555555555555557,0)" xlink:href="#ax"/><use transform="matrix(0.04938271604938272,0,0,0.04938271604938272,40.44444444444445,0)" xlink:href="#ak"/><use transform="matrix(0.04938271604938272,0,0,0.04938271604938272,44.345679012345684,0)" xlink:href="#al"/><use transform="matrix(0.04938271604938272,0,0,0.04938271604938272,54.22222222222223,0)" xlink:href="#as"/></g><path d="M100-194c63 0 86 42 84 106H49c0 40 14 67 53 68 26 1 43-12 49-29l28 8c-11 28-37 45-77 45C44 4 14-33 15-96c1-61 26-98 85-98zm52 81c6-60-76-77-97-28-3 7-6 17-6 28h103zm-36-98l-58-49v-5h36c12 19 30 32 38 54h-16" id="aO"/><g id="u"><use transform="matrix(0.05,0,0,0.05,0,0)" xlink:href="#aH"/><use transform="matrix(0.05,0,0,0.05,10,0)" xlink:href="#aq"/><use transform="matrix(0.05,0,0,0.05,20,0)" xlink:href="#ax"/><use transform="matrix(0.05,0,0,0.05,29,0)" xlink:href="#ax"/><use transform="matrix(0.05,0,0,0.05,38,0)" xlink:href="#aO"/><use transform="matrix(0.05,0,0,0.05,48,0)" xlink:href="#aw"/><use transform="matrix(0.05,0,0,0.05,58,0)" xlink:href="#al"/></g><g id="v"><use transform="matrix(0.05,0,0,0.05,0,0)" xlink:href="#ay"/><use transform="matrix(0.05,0,0,0.05,9,0)" xlink:href="#aq"/><use transform="matrix(0.05,0,0,0.05,19,0)" xlink:href="#am"/><use transform="matrix(0.05,0,0,0.05,29,0)" xlink:href="#aj"/><use transform="matrix(0.05,0,0,0.05,34,0)" xlink:href="#ak"/><use transform="matrix(0.05,0,0,0.05,37.95,0)" xlink:href="#al"/><use transform="matrix(0.05,0,0,0.05,47.95,0)" xlink:href="#am"/><use transform="matrix(0.05,0,0,0.05,57.95,0)" xlink:href="#aj"/></g><g id="w"><use transform="matrix(0.05,0,0,0.05,0,0)" xlink:href="#aB"/><use transform="matrix(0.05,0,0,0.05,5.95,0)" xlink:href="#aE"/><use transform="matrix(0.05,0,0,0.05,15.949999999999998,0)" xlink:href="#aD"/><use transform="matrix(0.05,0,0,0.05,20.95,0)" xlink:href="#aE"/><use transform="matrix(0.05,0,0,0.05,30.950000000000003,0)" xlink:href="#aF"/></g><g id="x"><use transform="matrix(0.05,0,0,0.05,0,0)" xlink:href="#aB"/><use transform="matrix(0.05,0,0,0.05,5.95,0)" xlink:href="#aC"/><use transform="matrix(0.05,0,0,0.05,15.949999999999998,0)" xlink:href="#aD"/><use transform="matrix(0.05,0,0,0.05,20.95,0)" xlink:href="#am"/><use transform="matrix(0.05,0,0,0.05,30.950000000000003,0)" xlink:href="#aF"/></g><g id="y"><use transform="matrix(0.04938271604938272,0,0,0.04938271604938272,0,0)" xlink:href="#ah"/><use transform="matrix(0.04938271604938272,0,0,0.04938271604938272,11.851851851851853,0)" xlink:href="#al"/><use transform="matrix(0.04938271604938272,0,0,0.04938271604938272,21.7283950617284,0)" xlink:href="#as"/><use transform="matrix(0.04938271604938272,0,0,0.04938271604938272,27.604938271604947,0)" xlink:href="#ax"/><use transform="matrix(0.04938271604938272,0,0,0.04938271604938272,36.49382716049384,0)" xlink:href="#aq"/><use transform="matrix(0.04938271604938272,0,0,0.04938271604938272,46.37037037037038,0)" xlink:href="#am"/><use transform="matrix(0.04938271604938272,0,0,0.04938271604938272,56.24691358024693,0)" xlink:href="#am"/><use transform="matrix(0.04938271604938272,0,0,0.04938271604938272,66.12345679012347,0)" xlink:href="#al"/><use transform="matrix(0.04938271604938272,0,0,0.04938271604938272,76.00000000000001,0)" xlink:href="#aA"/></g><g id="z"><use transform="matrix(0.04938271604938272,0,0,0.04938271604938272,0,0)" xlink:href="#ax"/><use transform="matrix(0.04938271604938272,0,0,0.04938271604938272,8.88888888888889,0)" xlink:href="#ai"/><use transform="matrix(0.04938271604938272,0,0,0.04938271604938272,18.765432098765434,0)" xlink:href="#am"/><use transform="matrix(0.04938271604938272,0,0,0.04938271604938272,28.641975308641978,0)" xlink:href="#aj"/><use transform="matrix(0.04938271604938272,0,0,0.04938271604938272,33.580246913580254,0)" xlink:href="#at"/></g><g id="A"><use transform="matrix(0.04938271604938272,0,0,0.04938271604938272,0,0)" xlink:href="#ao"/><use transform="matrix(0.04938271604938272,0,0,0.04938271604938272,4.938271604938272,0)" xlink:href="#an"/><use transform="matrix(0.04938271604938272,0,0,0.04938271604938272,17.7283950617284,0)" xlink:href="#aK"/><use transform="matrix(0.04938271604938272,0,0,0.04938271604938272,29.580246913580254,0)" xlink:href="#az"/><use transform="matrix(0.04938271604938272,0,0,0.04938271604938272,44.345679012345684,0)" xlink:href="#ao"/><path d="M-.9 1.23h51.07v1.3H-.9z"/></g><g id="B"><use transform="matrix(0.04938271604938272,0,0,0.04938271604938272,0,0)" xlink:href="#aG"/><use transform="matrix(0.04938271604938272,0,0,0.04938271604938272,8.839506172839506,0)" xlink:href="#al"/><use transform="matrix(0.04938271604938272,0,0,0.04938271604938272,18.71604938271605,0)" xlink:href="#aA"/></g><g id="C"><use transform="matrix(0.04938271604938272,0,0,0.04938271604938272,0,0)" xlink:href="#ah"/><use transform="matrix(0.04938271604938272,0,0,0.04938271604938272,11.851851851851853,0)" xlink:href="#as"/><use transform="matrix(0.04938271604938272,0,0,0.04938271604938272,17.728395061728396,0)" xlink:href="#al"/><use transform="matrix(0.04938271604938272,0,0,0.04938271604938272,27.60493827160494,0)" xlink:href="#ax"/><use transform="matrix(0.04938271604938272,0,0,0.04938271604938272,36.49382716049383,0)" xlink:href="#ay"/><use transform="matrix(0.04938271604938272,0,0,0.04938271604938272,45.38271604938272,0)" xlink:href="#as"/><use transform="matrix(0.04938271604938272,0,0,0.04938271604938272,51.25925925925927,0)" xlink:href="#ak"/><use transform="matrix(0.04938271604938272,0,0,0.04938271604938272,55.1604938271605,0)" xlink:href="#aH"/><use transform="matrix(0.04938271604938272,0,0,0.04938271604938272,65.03703703703704,0)" xlink:href="#aj"/><use transform="matrix(0.04938271604938272,0,0,0.04938271604938272,69.97530864197532,0)" xlink:href="#ak"/><use transform="matrix(0.04938271604938272,0,0,0.04938271604938272,73.87654320987656,0)" xlink:href="#aq"/><use transform="matrix(0.04938271604938272,0,0,0.04938271604938272,83.7530864197531,0)" xlink:href="#am"/></g><g id="D"><use transform="matrix(0.04938271604938272,0,0,0.04938271604938272,0,0)" xlink:href="#az"/><use transform="matrix(0.04938271604938272,0,0,0.04938271604938272,14.765432098765434,0)" xlink:href="#at"/><use transform="matrix(0.04938271604938272,0,0,0.04938271604938272,24.641975308641978,0)" xlink:href="#aw"/><use transform="matrix(0.04938271604938272,0,0,0.04938271604938272,34.51851851851852,0)" xlink:href="#al"/><use transform="matrix(0.04938271604938272,0,0,0.04938271604938272,44.39506172839506,0)" xlink:href="#ay"/><use transform="matrix(0.04938271604938272,0,0,0.04938271604938272,53.28395061728394,0)" xlink:href="#ak"/><use transform="matrix(0.04938271604938272,0,0,0.04938271604938272,57.185185185185176,0)" xlink:href="#am"/></g><g id="E"><use transform="matrix(0.04938271604938272,0,0,0.04938271604938272,0,0)" xlink:href="#ah"/><use transform="matrix(0.04938271604938272,0,0,0.04938271604938272,11.851851851851853,0)" xlink:href="#aI"/><use transform="matrix(0.04938271604938272,0,0,0.04938271604938272,21.7283950617284,0)" xlink:href="#ai"/><use transform="matrix(0.04938271604938272,0,0,0.04938271604938272,31.60493827160494,0)" xlink:href="#as"/><use transform="matrix(0.04938271604938272,0,0,0.04938271604938272,37.48148148148149,0)" xlink:href="#ar"/><use transform="matrix(0.04938271604938272,0,0,0.04938271604938272,52.24691358024693,0)" xlink:href="#ai"/><use transform="matrix(0.04938271604938272,0,0,0.04938271604938272,62.12345679012347,0)" xlink:href="#ay"/><use transform="matrix(0.04938271604938272,0,0,0.04938271604938272,71.01234567901236,0)" xlink:href="#ak"/><use transform="matrix(0.04938271604938272,0,0,0.04938271604938272,74.9135802469136,0)" xlink:href="#al"/><use transform="matrix(0.04938271604938272,0,0,0.04938271604938272,84.79012345679014,0)" xlink:href="#am"/></g><g id="F"><use transform="matrix(0.05,0,0,0.05,0,0)" xlink:href="#aB"/><use transform="matrix(0.05,0,0,0.05,5.95,0)" xlink:href="#aE"/><use transform="matrix(0.05,0,0,0.05,15.949999999999998,0)" xlink:href="#aD"/><use transform="matrix(0.05,0,0,0.05,20.95,0)" xlink:href="#am"/><use transform="matrix(0.05,0,0,0.05,30.950000000000003,0)" xlink:href="#aF"/></g><g id="G"><use transform="matrix(0.04938271604938272,0,0,0.04938271604938272,0,0)" xlink:href="#az"/><use transform="matrix(0.04938271604938272,0,0,0.04938271604938272,14.765432098765434,0)" xlink:href="#at"/><use transform="matrix(0.04938271604938272,0,0,0.04938271604938272,24.641975308641978,0)" xlink:href="#aw"/><use transform="matrix(0.04938271604938272,0,0,0.04938271604938272,34.51851851851852,0)" xlink:href="#ak"/><use transform="matrix(0.04938271604938272,0,0,0.04938271604938272,38.41975308641975,0)" xlink:href="#ay"/><use transform="matrix(0.04938271604938272,0,0,0.04938271604938272,47.308641975308646,0)" xlink:href="#ai"/><use transform="matrix(0.04938271604938272,0,0,0.04938271604938272,57.18518518518519,0)" xlink:href="#ar"/><use transform="matrix(0.04938271604938272,0,0,0.04938271604938272,71.95061728395062,0)" xlink:href="#al"/><use transform="matrix(0.04938271604938272,0,0,0.04938271604938272,81.82716049382717,0)" xlink:href="#am"/><use transform="matrix(0.04938271604938272,0,0,0.04938271604938272,91.70370370370371,0)" xlink:href="#aj"/></g><path d="M212-179c-10-28-35-45-73-45-59 0-87 40-87 99 0 60 29 101 89 101 43 0 62-24 78-52l27 14C228-24 195 4 139 4 59 4 22-46 18-125c-6-104 99-153 187-111 19 9 31 26 39 46" id="aP"/><g id="H"><use transform="matrix(0.04938271604938272,0,0,0.04938271604938272,0,0)" xlink:href="#av"/><use transform="matrix(0.04938271604938272,0,0,0.04938271604938272,12.790123456790125,0)" xlink:href="#aP"/><use transform="matrix(0.04938271604938272,0,0,0.04938271604938272,25.58024691358025,0)" xlink:href="#ao"/><path d="M-.9 1.23h32.3v1.3H-.9z"/></g><g id="I"><use transform="matrix(0.04938271604938272,0,0,0.04938271604938272,0,0)" xlink:href="#ay"/><use transform="matrix(0.04938271604938272,0,0,0.04938271604938272,8.88888888888889,0)" xlink:href="#aq"/><use transform="matrix(0.04938271604938272,0,0,0.04938271604938272,18.765432098765434,0)" xlink:href="#ar"/><use transform="matrix(0.04938271604938272,0,0,0.04938271604938272,33.53086419753087,0)" xlink:href="#ar"/><use transform="matrix(0.04938271604938272,0,0,0.04938271604938272,48.296296296296305,0)" xlink:href="#al"/><use transform="matrix(0.04938271604938272,0,0,0.04938271604938272,58.17283950617284,0)" xlink:href="#as"/><use transform="matrix(0.04938271604938272,0,0,0.04938271604938272,64.0493827160494,0)" xlink:href="#ay"/><use transform="matrix(0.04938271604938272,0,0,0.04938271604938272,72.93827160493828,0)" xlink:href="#ak"/><use transform="matrix(0.04938271604938272,0,0,0.04938271604938272,76.83950617283952,0)" xlink:href="#ai"/><use transform="matrix(0.04938271604938272,0,0,0.04938271604938272,86.71604938271606,0)" xlink:href="#aA"/></g><g id="J"><use transform="matrix(0.04938271604938272,0,0,0.04938271604938272,0,0)" xlink:href="#aP"/><use transform="matrix(0.04938271604938272,0,0,0.04938271604938272,12.790123456790125,0)" xlink:href="#aq"/><use transform="matrix(0.04938271604938272,0,0,0.04938271604938272,22.66666666666667,0)" xlink:href="#am"/><use transform="matrix(0.04938271604938272,0,0,0.04938271604938272,32.543209876543216,0)" xlink:href="#aw"/><use transform="matrix(0.04938271604938272,0,0,0.04938271604938272,42.41975308641976,0)" xlink:href="#ak"/><use transform="matrix(0.04938271604938272,0,0,0.04938271604938272,46.320987654320994,0)" xlink:href="#aj"/><use transform="matrix(0.04938271604938272,0,0,0.04938271604938272,51.25925925925927,0)" xlink:href="#ak"/><use transform="matrix(0.04938271604938272,0,0,0.04938271604938272,55.1604938271605,0)" xlink:href="#aq"/><use transform="matrix(0.04938271604938272,0,0,0.04938271604938272,65.03703703703704,0)" xlink:href="#am"/><use transform="matrix(0.04938271604938272,0,0,0.04938271604938272,74.91358024691358,0)" xlink:href="#am"/><use transform="matrix(0.04938271604938272,0,0,0.04938271604938272,84.79012345679013,0)" xlink:href="#al"/><use transform="matrix(0.04938271604938272,0,0,0.04938271604938272,94.66666666666667,0)" xlink:href="#ar"/><use transform="matrix(0.04938271604938272,0,0,0.04938271604938272,109.4320987654321,0)" xlink:href="#al"/><use transform="matrix(0.04938271604938272,0,0,0.04938271604938272,119.30864197530865,0)" xlink:href="#am"/><use transform="matrix(0.04938271604938272,0,0,0.04938271604938272,129.1851851851852,0)" xlink:href="#aj"/></g><g id="K"><use transform="matrix(0.05,0,0,0.05,0,0)" xlink:href="#aH"/><use transform="matrix(0.05,0,0,0.05,10,0)" xlink:href="#as"/><use transform="matrix(0.05,0,0,0.05,15.949999999999998,0)" xlink:href="#al"/><use transform="matrix(0.05,0,0,0.05,25.950000000000003,0)" xlink:href="#ax"/><use transform="matrix(0.05,0,0,0.05,34.95,0)" xlink:href="#ay"/><use transform="matrix(0.05,0,0,0.05,43.95,0)" xlink:href="#as"/><use transform="matrix(0.05,0,0,0.05,49.900000000000006,0)" xlink:href="#ak"/><use transform="matrix(0.05,0,0,0.05,53.85,0)" xlink:href="#aj"/></g><g id="L"><use transform="matrix(0.04938271604938272,0,0,0.04938271604938272,0,0)" xlink:href="#ap"/><use transform="matrix(0.04938271604938272,0,0,0.04938271604938272,11.851851851851853,0)" xlink:href="#aH"/><use transform="matrix(0.04938271604938272,0,0,0.04938271604938272,21.7283950617284,0)" xlink:href="#at"/><use transform="matrix(0.04938271604938272,0,0,0.04938271604938272,31.60493827160494,0)" xlink:href="#ay"/><use transform="matrix(0.04938271604938272,0,0,0.04938271604938272,40.49382716049384,0)" xlink:href="#ak"/><use transform="matrix(0.04938271604938272,0,0,0.04938271604938272,44.39506172839507,0)" xlink:href="#ai"/><use transform="matrix(0.04938271604938272,0,0,0.04938271604938272,54.27160493827161,0)" xlink:href="#aA"/><use transform="matrix(0.04938271604938272,0,0,0.04938271604938272,58.17283950617284,0)" xlink:href="#ak"/><use transform="matrix(0.04938271604938272,0,0,0.04938271604938272,62.074074074074076,0)" xlink:href="#ax"/><use transform="matrix(0.04938271604938272,0,0,0.04938271604938272,70.96296296296298,0)" xlink:href="#ai"/><use transform="matrix(0.04938271604938272,0,0,0.04938271604938272,80.83950617283952,0)" xlink:href="#aj"/><use transform="matrix(0.04938271604938272,0,0,0.04938271604938272,85.7777777777778,0)" xlink:href="#ak"/><use transform="matrix(0.04938271604938272,0,0,0.04938271604938272,89.67901234567904,0)" xlink:href="#aq"/><use transform="matrix(0.04938271604938272,0,0,0.04938271604938272,99.55555555555559,0)" xlink:href="#am"/></g><use transform="matrix(0.05,0,0,0.05,0,0)" xlink:href="#ai" id="M"/><g id="N"><use transform="matrix(0.05,0,0,0.05,0,0)" xlink:href="#aB"/><use transform="matrix(0.05,0,0,0.05,5.95,0)" xlink:href="#aH"/><use transform="matrix(0.05,0,0,0.05,15.949999999999998,0)" xlink:href="#aD"/><use transform="matrix(0.05,0,0,0.05,20.95,0)" xlink:href="#al"/><use transform="matrix(0.05,0,0,0.05,30.950000000000003,0)" xlink:href="#aF"/></g><g id="O"><use transform="matrix(0.05,0,0,0.05,0,0)" xlink:href="#aM"/><use transform="matrix(0.05,0,0,0.05,10,0)" xlink:href="#aO"/><use transform="matrix(0.05,0,0,0.05,20,0)" xlink:href="#as"/><use transform="matrix(0.05,0,0,0.05,25.950000000000003,0)" xlink:href="#al"/></g><path d="M16-82v-28h88v28H16" id="aQ"/><use transform="matrix(0.05,0,0,0.05,0,0)" xlink:href="#aQ" id="P"/><g id="Q"><use transform="matrix(0.05,0,0,0.05,0,0)" xlink:href="#av"/><use transform="matrix(0.05,0,0,0.05,12.950000000000001,0)" xlink:href="#ai"/><use transform="matrix(0.05,0,0,0.05,22.950000000000003,0)" xlink:href="#aj"/><use transform="matrix(0.05,0,0,0.05,27.950000000000003,0)" xlink:href="#al"/></g><g id="R"><use transform="matrix(0.05,0,0,0.05,0,0)" xlink:href="#aw"/><use transform="matrix(0.05,0,0,0.05,10,0)" xlink:href="#al"/></g><path d="M145-31C134-9 116 4 85 4 32 4 16-35 15-94c0-59 17-99 70-100 32-1 48 14 60 33 0-11-1-24 2-32h30l-1 268h-32zM93-21c41 0 51-33 51-76s-8-73-50-73c-40 0-46 35-46 75s5 74 45 74" id="aR"/><g id="S"><use transform="matrix(0.05,0,0,0.05,0,0)" xlink:href="#aw"/><use transform="matrix(0.05,0,0,0.05,10,0)" xlink:href="#ak"/><use transform="matrix(0.05,0,0,0.05,13.949999999999998,0)" xlink:href="#ai"/><use transform="matrix(0.05,0,0,0.05,23.95,0)" xlink:href="#aM"/><use transform="matrix(0.05,0,0,0.05,33.95,0)" xlink:href="#am"/><use transform="matrix(0.05,0,0,0.05,43.95,0)" xlink:href="#aq"/><use transform="matrix(0.05,0,0,0.05,53.95,0)" xlink:href="#ax"/><use transform="matrix(0.05,0,0,0.05,62.95,0)" xlink:href="#aj"/><use transform="matrix(0.05,0,0,0.05,67.95,0)" xlink:href="#ak"/><use transform="matrix(0.05,0,0,0.05,71.9,0)" xlink:href="#aR"/><use transform="matrix(0.05,0,0,0.05,81.9,0)" xlink:href="#aL"/><use transform="matrix(0.05,0,0,0.05,91.9,0)" xlink:href="#al"/></g><path d="M108 0H70L1-190h34L89-25l56-165h34" id="aS"/><g id="T"><use transform="matrix(0.05,0,0,0.05,0,0)" xlink:href="#aw"/><use transform="matrix(0.05,0,0,0.05,10,0)" xlink:href="#at"/><use transform="matrix(0.05,0,0,0.05,20,0)" xlink:href="#aA"/><use transform="matrix(0.05,0,0,0.05,23.95,0)" xlink:href="#ak"/><use transform="matrix(0.05,0,0,0.05,27.899999999999995,0)" xlink:href="#aS"/><use transform="matrix(0.05,0,0,0.05,36.9,0)" xlink:href="#as"/><use transform="matrix(0.05,0,0,0.05,42.85,0)" xlink:href="#al"/></g><path d="M115-194c53 0 69 39 70 98 0 66-23 100-70 100C84 3 66-7 56-30L54 0H23l1-261h32v101c10-23 28-34 59-34zm-8 174c40 0 45-34 45-75 0-40-5-75-45-74-42 0-51 32-51 76 0 43 10 73 51 73" id="aT"/><g id="U"><use transform="matrix(0.05,0,0,0.05,0,0)" xlink:href="#aw"/><use transform="matrix(0.05,0,0,0.05,10,0)" xlink:href="#at"/><use transform="matrix(0.05,0,0,0.05,20,0)" xlink:href="#aT"/><use transform="matrix(0.05,0,0,0.05,30,0)" xlink:href="#aL"/><use transform="matrix(0.05,0,0,0.05,40,0)" xlink:href="#aj"/></g><g id="V"><use transform="matrix(0.05,0,0,0.05,0,0)" xlink:href="#aj"/><use transform="matrix(0.05,0,0,0.05,5,0)" xlink:href="#as"/><use transform="matrix(0.05,0,0,0.05,10.95,0)" xlink:href="#ai"/><use transform="matrix(0.05,0,0,0.05,20.95,0)" xlink:href="#ak"/><use transform="matrix(0.05,0,0,0.05,24.9,0)" xlink:href="#aj"/><use transform="matrix(0.05,0,0,0.05,29.899999999999995,0)" xlink:href="#al"/><use transform="matrix(0.05,0,0,0.05,39.9,0)" xlink:href="#ar"/><use transform="matrix(0.05,0,0,0.05,54.85,0)" xlink:href="#al"/><use transform="matrix(0.05,0,0,0.05,64.85,0)" xlink:href="#am"/><use transform="matrix(0.05,0,0,0.05,74.85,0)" xlink:href="#aj"/></g><use transform="matrix(0.05,0,0,0.05,0,0)" xlink:href="#aQ" id="W"/><g id="X"><use transform="matrix(0.05,0,0,0.05,0,0)" xlink:href="#av"/><use transform="matrix(0.05,0,0,0.05,12.950000000000001,0)" xlink:href="#aL"/><use transform="matrix(0.05,0,0,0.05,22.950000000000003,0)" xlink:href="#as"/><use transform="matrix(0.05,0,0,0.05,28.900000000000002,0)" xlink:href="#at"/><use transform="matrix(0.05,0,0,0.05,38.900000000000006,0)" xlink:href="#at"/></g><g id="Y"><use transform="matrix(0.05,0,0,0.05,0,0)" xlink:href="#aw"/><use transform="matrix(0.05,0,0,0.05,10,0)" xlink:href="#aL"/></g><g id="Z"><use transform="matrix(0.05,0,0,0.05,0,0)" xlink:href="#aj"/><use transform="matrix(0.05,0,0,0.05,5,0)" xlink:href="#as"/><use transform="matrix(0.05,0,0,0.05,10.95,0)" xlink:href="#ai"/><use transform="matrix(0.05,0,0,0.05,20.95,0)" xlink:href="#ak"/><use transform="matrix(0.05,0,0,0.05,24.9,0)" xlink:href="#aj"/><use transform="matrix(0.05,0,0,0.05,29.899999999999995,0)" xlink:href="#al"/><use transform="matrix(0.05,0,0,0.05,39.9,0)" xlink:href="#ar"/><use transform="matrix(0.05,0,0,0.05,54.85,0)" xlink:href="#al"/><use transform="matrix(0.05,0,0,0.05,64.85,0)" xlink:href="#am"/><use transform="matrix(0.05,0,0,0.05,74.85,0)" xlink:href="#aj"/></g><g id="aa"><use transform="matrix(0.05,0,0,0.05,0,0)" xlink:href="#ai"/><use transform="matrix(0.05,0,0,0.05,10,0)" xlink:href="#ax"/><use transform="matrix(0.05,0,0,0.05,19,0)" xlink:href="#ax"/><use transform="matrix(0.05,0,0,0.05,28,0)" xlink:href="#aq"/><use transform="matrix(0.05,0,0,0.05,38,0)" xlink:href="#ay"/><use transform="matrix(0.05,0,0,0.05,47,0)" xlink:href="#ak"/><use transform="matrix(0.05,0,0,0.05,50.95,0)" xlink:href="#at"/></g><g id="ab"><use transform="matrix(0.05,0,0,0.05,0,0)" xlink:href="#aB"/><use transform="matrix(0.05,0,0,0.05,5.95,0)" xlink:href="#aE"/><use transform="matrix(0.05,0,0,0.05,15.949999999999998,0)" xlink:href="#aD"/></g><g id="ac"><use transform="matrix(0.05,0,0,0.05,0,0)" xlink:href="#am"/><use transform="matrix(0.05,0,0,0.05,10,0)" xlink:href="#aF"/></g><g id="ad"><use transform="matrix(0.05,0,0,0.05,0,0)" xlink:href="#aE"/><use transform="matrix(0.05,0,0,0.05,10,0)" xlink:href="#aF"/></g><path d="M179-190L93 31C79 59 56 82 12 73V49c39 6 53-20 64-50L1-190h34L92-34l54-156h33" id="aU"/><g id="ae"><use transform="matrix(0.04938271604938272,0,0,0.04938271604938272,0,0)" xlink:href="#ap"/><use transform="matrix(0.04938271604938272,0,0,0.04938271604938272,11.851851851851853,0)" xlink:href="#aU"/><use transform="matrix(0.04938271604938272,0,0,0.04938271604938272,20.74074074074074,0)" xlink:href="#ax"/><use transform="matrix(0.04938271604938272,0,0,0.04938271604938272,29.629629629629633,0)" xlink:href="#aj"/><use transform="matrix(0.04938271604938272,0,0,0.04938271604938272,34.5679012345679,0)" xlink:href="#aO"/><use transform="matrix(0.04938271604938272,0,0,0.04938271604938272,44.44444444444444,0)" xlink:href="#ar"/><use transform="matrix(0.04938271604938272,0,0,0.04938271604938272,59.20987654320987,0)" xlink:href="#al"/></g><g id="af"><use transform="matrix(0.04938271604938272,0,0,0.04938271604938272,0,0)" xlink:href="#aK"/><use transform="matrix(0.04938271604938272,0,0,0.04938271604938272,11.851851851851853,0)" xlink:href="#am"/><use transform="matrix(0.04938271604938272,0,0,0.04938271604938272,21.7283950617284,0)" xlink:href="#ai"/><use transform="matrix(0.04938271604938272,0,0,0.04938271604938272,31.60493827160494,0)" xlink:href="#aj"/><use transform="matrix(0.04938271604938272,0,0,0.04938271604938272,36.543209876543216,0)" xlink:href="#aq"/><use transform="matrix(0.04938271604938272,0,0,0.04938271604938272,46.41975308641976,0)" xlink:href="#ar"/><use transform="matrix(0.04938271604938272,0,0,0.04938271604938272,61.18518518518519,0)" xlink:href="#ak"/><use transform="matrix(0.04938271604938272,0,0,0.04938271604938272,65.08641975308643,0)" xlink:href="#aR"/><use transform="matrix(0.04938271604938272,0,0,0.04938271604938272,74.96296296296298,0)" xlink:href="#aL"/><use transform="matrix(0.04938271604938272,0,0,0.04938271604938272,84.83950617283952,0)" xlink:href="#al"/></g><g id="ag"><use transform="matrix(0.05,0,0,0.05,0,0)" xlink:href="#ax"/><use transform="matrix(0.05,0,0,0.05,9,0)" xlink:href="#aH"/><use transform="matrix(0.05,0,0,0.05,19,0)" xlink:href="#at"/><use transform="matrix(0.05,0,0,0.05,29,0)" xlink:href="#ay"/><use transform="matrix(0.05,0,0,0.05,38,0)" xlink:href="#ak"/><use transform="matrix(0.05,0,0,0.05,41.95,0)" xlink:href="#ai"/><use transform="matrix(0.05,0,0,0.05,51.95,0)" xlink:href="#aA"/><use transform="matrix(0.05,0,0,0.05,55.900000000000006,0)" xlink:href="#ak"/><use transform="matrix(0.05,0,0,0.05,59.85,0)" xlink:href="#ax"/><use transform="matrix(0.05,0,0,0.05,68.85000000000001,0)" xlink:href="#at"/></g></defs></g></svg>